<svg id="Capa_1" data-name="Capa 1" xmlns="http://www.w3.org/2000/svg" viewBox="0 0 126.76 182.31"><defs><style>.cls-1{fill:#bb2333;}.cls-2{fill:#f7f3e3;}.cls-3{fill:#140d09;}</style></defs><path class="cls-1" d="M19.53,57.61c-1.66,6.28,16.25,8.45,16.65,18.68.58,14.43-25,11.26-33,9.86-4.58-1.64-3.74-9.61-.21-11.84,2.36-1,6.64,1.39,10.14-.64,2.43-1.42,1.52-4.22-.33-5.26-5.28-3-11-6.92-12.29-13.22-3.2-17.89,25-11.79,33-5.34,1.81,1.68,1.78,5.46,0,6.44C30.78,57.72,20.66,53.35,19.53,57.61Z"/><path class="cls-1" d="M71.23,48.48c4.13,1.44,5.27,13.15,6,18.13.83,5.64,2.77,14,.34,19.42a37.44,37.44,0,0,1-12.16.62c-2.46-.2-3.24-5.4-3.52-6.41-.22-.78-3.92-1.55-4.42.39s-.57,5-2,5.47c-3.6,1.12-10.32,1.69-13.83-.59-1.92-5.51-.3-13,.53-18.53s1.48-13.2,5-18C53.47,46.07,66.26,46.74,71.23,48.48ZM63.81,69.77A41.63,41.63,0,0,0,63,60.35c-.36-2.43-6-2.28-6.3-.13-.5,3.29-.88,8.88-.89,9.67C55.82,72.27,63.7,72.16,63.81,69.77Z"/><path class="cls-1" d="M99.67,85.9c-1.9,1.17-12.57,1.35-13.5-.87-1.53-3.63-.28-12.53-.3-18.79,0-5.45-1.28-15.75,1.15-18C89,46.43,98.59,45,101.18,46.77c3.47,2.42,8.24,17.25,9,17,1.38-.41-2.9-17-.18-19.45,1.56-1.41,11.55-3.06,12.85-1,2.41,3.8,1,14.71,1.14,21.91.07,5.65,1.47,18.72-1.15,20.62-2,1.42-12.09,1.8-14.46-.67s-6.25-13.76-7.17-13.47C100.05,72.1,102.32,84.26,99.67,85.9Z"/><path class="cls-1" d="M7,140.44c0,2.71.5,5.56,1.92,5.73s1.37-26,1.34-27.42c0-3.17,6-1.68,6.16-1.57.8.46.32,31.87-.37,33.95-.45,1.43-8.41,1.31-11.66.83S.6,147.25.34,142.66.5,94.5,3.07,93.7s11.84-1,13.07.08.48,5.36-.2,5.9C6.33,98.8,7,90.57,7,140.44Z"/><path class="cls-1" d="M37.18,142.89c0,7.64-2,9.18-8.67,9.29s-10.06-1.55-10.06-9.32c0-56.21,1.77-50.77,9.89-50.37C36.75,92.92,37.18,86.65,37.18,142.89Zm-6.93,2.17c.2-2.54.26-41.64-.11-44.84-.23-1.91-4-1.62-4.11,0-.17,2.57.2,44.44.2,45C26.26,147.14,30.11,146.88,30.25,145.06Z"/><path class="cls-1" d="M45.36,151.39c-1,.31-6,.68-6-.52s-.54-57.32.31-57.86,5.48-.8,6.3.08,3.14,9.44,4.08,9.47-1-9.81-.11-10,5.36-.43,5.79.77.94,57.92,0,58.12-5.62.72-6.45-.4-2.05-7.18-3.22-7.18C45.39,143.83,46.39,151.07,45.36,151.39Z"/><path class="cls-1" d="M71,92.49c.91.49,1.31,3.48,1.11,4.65s-4,47.77-4,48.49,3.39.6,3.9,1.14-.28,4-.88,4.59-7.27.63-10.12.31-2.31-2-2.23-4.5,4.74-47.4,4.74-48.43-4.45-.32-5-.94-.31-4.25.4-4.68C60.56,92.15,70.11,92,71,92.49Z"/><path class="cls-1" d="M87.14,92.61c2.13.54,4,57.49,2.85,58.81-.37.39-4.31.48-5.42.34s-1.45-3-1.57-3.65-1.74-.89-2,.23-.22,2.79-.88,3.1c-.88.46-5.65.77-6.16-.31-1-2.34.88-55.93,2.51-58.09C77.38,91.84,85.8,92.24,87.14,92.61Zm-3.28,49.54c0-2-.09-40.53-.35-42.87-.17-1.4-2.65-1.28-2.79-.06-.23,1.89-.4,42.56-.4,43C80.29,143.6,83.8,143.52,83.86,142.15Z"/><path class="cls-1" d="M100.59,145c.4,1.17,3.71-.23,5.25.31.34.12,1.71,4.11-.11,5.74-.69.62-12.38,1.85-12.89-.63s-.8-57.53.08-57.87,7.5-.85,7.53.43C100.54,99.05,99.42,141.61,100.59,145Z"/><path class="cls-1" d="M126.14,142.89c0,7.64-2,9.18-8.67,9.29s-10.06-1.55-10.06-9.32c0-52.38-.94-50.37,9.89-50.37C125.73,92.49,126.14,94.3,126.14,142.89Zm-6.93,2.17c.2-2.54.26-41.64-.11-44.84-.23-1.91-4-1.62-4.11,0-.17,2.57.2,44.44.2,45C115.22,147.14,119.07,146.88,119.21,145.06Z"/><rect class="cls-2" x="0.46" y="158.33" width="126.3" height="23.98" rx="6.38"/><path class="cls-3" d="M12.57,169.68c-.11,1.9.08,3.91,1.08,4s1-1.33.94-2.33c0-2.22,4.21-1.18,4.33-1.1.56.32.22,5.45-.26,6.91-.32,1-5.91.93-8.2.58s-2.68-3.3-2.86-6.53S8,163,9.78,162.38s8.06.14,8.92.87.34,3.76-.14,4.14C15.37,168.3,12.79,164.63,12.57,169.68Z"/><path class="cls-3" d="M33.49,171.4c0,5.37-1.41,6.45-6.1,6.54s-6.75-1.11-7.07-6.56c-.34-6.09,1.24-9.32,7-9C33.19,162.64,33.49,165,33.49,171.4Zm-4.87,1.53a22.57,22.57,0,0,0-.08-5.16c-.16-1.34-2.79-1.14-2.89,0-.12,1.81.14,4.87.14,5.3C25.81,174.39,28.52,174.21,28.62,172.93Z"/><path class="cls-3" d="M48.11,171.4c0,5.37-1.4,6.45-6.09,6.54s-6.75-1.11-7.07-6.56c-.34-6.09,1.24-9.32,6.95-9C47.81,162.64,48.11,165,48.11,171.4Zm-4.87,1.53a22.57,22.57,0,0,0-.08-5.16c-.16-1.34-2.78-1.14-2.88,0-.12,1.81.14,4.87.14,5.3C40.44,174.39,43.14,174.21,43.24,172.93Z"/><path class="cls-3" d="M57.11,162.5c1.84.47,3.71,3.41,3.77,7.3s-1.44,7.11-3.07,7.61-7.13.38-7.85,0-.42-14.22.18-14.83C50.92,162.08,55.25,162,57.11,162.5Zm-.9,11.11c.66-.54.6-2.65.6-3.49s-.16-2.55-1-3-1.6-.18-1.66.66a46,46,0,0,0,.14,5.3C54.33,174.05,55.53,174.15,56.21,173.61Z"/><path class="cls-3" d="M78.65,162.46c.62.14.82,3.29,0,3.73s-3,.18-3.68.38c-.37.12-.33,1.61,0,1.75.82.38,3,0,3.38.36a3.68,3.68,0,0,1,.1,3c-.42.86-2.58.6-3.24.88s.24,3.71-.55,4.57-3.48.6-4.26.32-.41-14.1.42-14.79C71.64,162.18,77.93,162.26,78.65,162.46Z"/><path class="cls-3" d="M93,171.4c0,5.37-1.4,6.45-6.09,6.54s-6.75-1.11-7.08-6.56c-.34-6.09,1.25-9.32,7-9C92.72,162.64,93,165,93,171.4Zm-4.87,1.53a22.57,22.57,0,0,0-.08-5.16c-.16-1.34-2.78-1.14-2.89,0-.12,1.81.15,4.87.15,5.3C85.35,174.39,88.05,174.21,88.15,172.93Z"/><path class="cls-3" d="M107.65,171.4c0,5.37-1.4,6.45-6.09,6.54s-6.76-1.11-7.08-6.56c-.34-6.09,1.24-9.32,7-9C107.35,162.64,107.65,165,107.65,171.4Zm-4.87,1.53a22.57,22.57,0,0,0-.08-5.16c-.16-1.34-2.79-1.14-2.89,0-.12,1.81.14,4.87.14,5.3C100,174.39,102.68,174.21,102.78,172.93Z"/><path class="cls-3" d="M116.65,162.5c1.84.47,3.7,3.41,3.76,7.3s-1.44,7.11-3.06,7.61-7.14.38-7.86,0-.42-14.22.18-14.83C110.45,162.08,114.78,162,116.65,162.5Zm-.91,11.11c.67-.54.61-2.65.61-3.49s-.17-2.55-1-3-1.6-.18-1.66.66a46,46,0,0,0,.14,5.3C113.86,174.05,115.06,174.15,115.74,173.61Z"/><path class="cls-1" d="M5.15,32.14A2.82,2.82,0,0,0,6.23,33.7C9.42,36,22.93,43.79,59.78,43.79c36.07,0,55.1-5.33,60.42-7.1a2.84,2.84,0,0,0,1.91-2.22c.66-3.82,1.66-12.88-3.77-12.88-6.59,0-27.51,11.19-47.4,11.51A2.87,2.87,0,0,1,68,30.41l-.45-7.7a2.85,2.85,0,0,1,2.47-3l6.25-.84a2.84,2.84,0,0,0,2.47-3l-.1-2.13a2.86,2.86,0,0,0-3-2.71l-6.3.41a2.86,2.86,0,0,1-3-2.49l-.84-6.49A2.86,2.86,0,0,0,62.41,0L59.18.29a2.86,2.86,0,0,0-2.6,3.09l.64,7.45a2.86,2.86,0,0,1-2.85,3.1H49a2.86,2.86,0,0,0-2.84,2.61l-.25,2.86A2.86,2.86,0,0,0,49,22.5l7-.34a2.86,2.86,0,0,1,3,2.41l1,6.45a2.85,2.85,0,0,1-2.79,3.29c-7.37.08-27.88-.49-40.73-7.36C2.62,19.5,4.3,29,5.15,32.14Z"/></svg>