<svg id="Capa_1" data-name="Capa 1" xmlns="http://www.w3.org/2000/svg" viewBox="0 0 211 211"><defs><style>.cls-1{fill:#bb2333;}.cls-2{fill:#140d09;}.cls-3{fill:#f7f3e3;}</style></defs><path class="cls-1" d="M60.94,65.31C59.28,71.59,77.19,73.76,77.59,84c.58,14.43-25,11.26-33,9.86C40,92.21,40.82,84.24,44.35,82c2.36-1,6.64,1.39,10.14-.64,2.43-1.42,1.52-4.22-.33-5.26-5.28-3-11-6.92-12.29-13.22-3.2-17.89,25-11.79,33-5.34,1.81,1.68,1.78,5.46,0,6.44C72.19,65.42,62.07,61.05,60.94,65.31Z"/><path class="cls-1" d="M112.64,56.18c4.13,1.44,5.27,13.15,6,18.13.83,5.64,2.77,14,.34,19.42a37.44,37.44,0,0,1-12.16.62c-2.46-.2-3.24-5.4-3.52-6.41-.22-.78-3.92-1.56-4.42.39s-.57,5-2,5.47c-3.6,1.12-10.32,1.69-13.83-.59-1.92-5.52-.3-13,.53-18.53s1.48-13.2,5-18C94.88,53.77,107.67,54.44,112.64,56.18Zm-7.42,21.29a41.63,41.63,0,0,0-.77-9.42c-.36-2.43-6-2.28-6.3-.13-.5,3.29-.88,8.88-.89,9.67C97.23,80,105.11,79.86,105.22,77.47Z"/><path class="cls-1" d="M141.08,93.6c-1.9,1.17-12.57,1.35-13.5-.87-1.53-3.63-.28-12.53-.3-18.79,0-5.45-1.28-15.75,1.15-18,1.93-1.8,11.57-3.27,14.16-1.46,3.47,2.42,8.24,17.25,9,17,1.38-.41-2.9-17-.18-19.45C153,50.62,163,49,164.31,51c2.41,3.8,1,14.71,1.14,21.91.07,5.65,1.47,18.72-1.15,20.62-2,1.42-12.09,1.8-14.46-.67s-6.25-13.76-7.17-13.47C141.46,79.8,143.73,92,141.08,93.6Z"/><path class="cls-1" d="M48.44,148.14c0,2.71.5,5.56,1.92,5.73s1.37-26,1.34-27.42c-.05-3.17,6-1.68,6.16-1.57.8.46.32,31.87-.37,34-.45,1.43-8.41,1.31-11.66.83S42,155,41.75,150.36s.16-48.16,2.73-49,11.84-1,13.07.08.48,5.36-.2,5.9C47.74,106.5,48.44,98.27,48.44,148.14Z"/><path class="cls-1" d="M78.59,150.59c0,7.64-2,9.18-8.67,9.29s-10.06-1.55-10.06-9.32c0-56.21,1.77-50.77,9.89-50.37C78.16,100.62,78.59,94.35,78.59,150.59Zm-6.93,2.17c.2-2.54.26-41.65-.11-44.84-.23-1.91-4-1.62-4.11,0-.17,2.57.2,44.43.2,45C67.67,154.84,71.52,154.58,71.66,152.76Z"/><path class="cls-1" d="M86.77,159.09c-1,.31-6,.68-6-.52s-.54-57.32.31-57.86,5.48-.8,6.3.08,3.14,9.44,4.08,9.47-1-9.81-.11-10,5.36-.43,5.79.77.94,57.92,0,58.12-5.62.72-6.45-.4-2.05-7.18-3.22-7.18C86.8,151.53,87.8,158.77,86.77,159.09Z"/><path class="cls-1" d="M112.44,100.19c.91.49,1.31,3.48,1.11,4.65s-4,47.77-4,48.49,3.39.59,3.9,1.14-.28,4-.88,4.59-7.27.62-10.12.31-2.31-2-2.23-4.5,4.74-47.41,4.74-48.43-4.45-.32-5-.94-.31-4.25.4-4.68C102,99.85,111.52,99.71,112.44,100.19Z"/><path class="cls-1" d="M128.55,100.31c2.13.54,4,57.49,2.85,58.8-.37.4-4.31.49-5.42.35s-1.45-3.05-1.57-3.65-1.74-.89-2,.22-.22,2.8-.88,3.11c-.88.46-5.65.77-6.16-.31-1-2.34.88-55.93,2.51-58.09C118.79,99.54,127.21,99.94,128.55,100.31Zm-3.28,49.54c0-2-.09-40.53-.35-42.87-.17-1.4-2.65-1.28-2.79-.06-.23,1.88-.4,42.56-.4,43C121.7,151.3,125.21,151.22,125.27,149.85Z"/><path class="cls-1" d="M142,152.67c.4,1.17,3.71-.23,5.25.31.34.12,1.71,4.11-.11,5.74-.69.62-12.38,1.85-12.89-.63s-.8-57.53.08-57.87,7.5-.85,7.53.43C142,106.75,140.83,149.31,142,152.67Z"/><path class="cls-1" d="M167.55,150.59c0,7.64-2,9.18-8.67,9.29s-10.06-1.55-10.06-9.32c0-52.38-.94-50.37,9.89-50.37C167.14,100.19,167.55,102,167.55,150.59Zm-6.93,2.17c.2-2.54.26-41.65-.11-44.84-.23-1.91-4-1.62-4.11,0-.17,2.57.2,44.43.2,45C156.63,154.84,160.48,154.58,160.62,152.76Z"/><rect class="cls-2" x="41.87" y="165.03" width="126.3" height="23.98" rx="6.38"/><path class="cls-3" d="M54,176.38c-.11,1.9.08,3.91,1.08,4s1-1.33.94-2.33c0-2.22,4.21-1.18,4.33-1.1.56.32.22,5.45-.26,6.91-.32,1-5.91.92-8.2.58s-2.68-3.3-2.86-6.53.38-8.3,2.18-8.86,8.06.14,8.92.87.34,3.76-.14,4.14C56.78,175,54.2,171.33,54,176.38Z"/><path class="cls-3" d="M74.9,178.1c0,5.37-1.41,6.45-6.1,6.53s-6.75-1.1-7.07-6.55c-.34-6.09,1.24-9.32,7-9C74.6,169.34,74.9,171.65,74.9,178.1ZM70,179.62a22.49,22.49,0,0,0-.08-5.15c-.16-1.34-2.79-1.14-2.89,0-.12,1.81.14,4.87.14,5.29C67.22,181.09,69.93,180.91,70,179.62Z"/><path class="cls-3" d="M89.52,178.1c0,5.37-1.4,6.45-6.09,6.53s-6.75-1.1-7.07-6.55c-.34-6.09,1.24-9.32,7-9C89.22,169.34,89.52,171.65,89.52,178.1Zm-4.87,1.52a22.49,22.49,0,0,0-.08-5.15c-.16-1.34-2.78-1.14-2.88,0-.12,1.81.14,4.87.14,5.29C81.85,181.09,84.55,180.91,84.65,179.62Z"/><path class="cls-3" d="M98.52,169.2c1.84.46,3.71,3.41,3.77,7.3s-1.44,7.11-3.07,7.61-7.13.38-7.85,0-.42-14.23.18-14.83C92.33,168.78,96.66,168.72,98.52,169.2Zm-.9,11.11c.66-.55.6-2.65.6-3.49s-.16-2.55-1-3-1.6-.18-1.66.66a45.66,45.66,0,0,0,.14,5.29C95.74,180.75,96.94,180.85,97.62,180.31Z"/><path class="cls-3" d="M120.06,169.16c.62.14.82,3.29,0,3.73s-3,.18-3.69.38c-.36.12-.32,1.6,0,1.75.82.38,3,0,3.38.36a3.68,3.68,0,0,1,.1,3c-.42.86-2.58.6-3.24.88s.24,3.71-.55,4.57-3.48.6-4.26.32-.41-14.1.42-14.79C113.05,168.88,119.34,169,120.06,169.16Z"/><path class="cls-3" d="M134.43,178.1c0,5.37-1.4,6.45-6.09,6.53s-6.75-1.1-7.08-6.55c-.34-6.09,1.25-9.32,7-9C134.13,169.34,134.43,171.65,134.43,178.1Zm-4.87,1.52a22.49,22.49,0,0,0-.08-5.15c-.16-1.34-2.78-1.14-2.89,0-.12,1.81.15,4.87.15,5.29C126.76,181.09,129.46,180.91,129.56,179.62Z"/><path class="cls-3" d="M149.06,178.1c0,5.37-1.4,6.45-6.09,6.53s-6.76-1.1-7.08-6.55c-.34-6.09,1.24-9.32,7-9C148.76,169.34,149.06,171.65,149.06,178.1Zm-4.87,1.52a22.49,22.49,0,0,0-.08-5.15c-.16-1.34-2.79-1.14-2.89,0-.12,1.81.14,4.87.14,5.29C141.38,181.09,144.09,180.91,144.19,179.62Z"/><path class="cls-3" d="M158.06,169.2c1.84.46,3.7,3.41,3.76,7.3s-1.44,7.11-3.06,7.61-7.14.38-7.86,0-.42-14.23.18-14.83C151.86,168.78,156.19,168.72,158.06,169.2Zm-.91,11.11c.67-.55.61-2.65.61-3.49s-.17-2.55-1-3-1.6-.18-1.66.66a45.66,45.66,0,0,0,.14,5.29C155.27,180.75,156.47,180.85,157.15,180.31Z"/><path class="cls-1" d="M46.56,39.84a2.82,2.82,0,0,0,1.08,1.56c3.19,2.31,16.7,10.09,53.55,10.09,36.07,0,55.1-5.33,60.42-7.1a2.84,2.84,0,0,0,1.91-2.22c.66-3.82,1.66-12.88-3.77-12.88-6.59,0-27.51,11.19-47.4,11.51a2.87,2.87,0,0,1-2.9-2.69l-.45-7.7a2.85,2.85,0,0,1,2.47-3l6.25-.84a2.84,2.84,0,0,0,2.47-3l-.1-2.13a2.86,2.86,0,0,0-3-2.71l-6.3.4a2.85,2.85,0,0,1-3-2.48l-.84-6.49a2.86,2.86,0,0,0-3.08-2.48L100.59,8A2.86,2.86,0,0,0,98,11.08l.64,7.45a2.86,2.86,0,0,1-2.85,3.1H90.41a2.86,2.86,0,0,0-2.84,2.61l-.25,2.86a2.86,2.86,0,0,0,3.05,3.1l7-.34a2.86,2.86,0,0,1,3,2.41l1,6.45A2.86,2.86,0,0,1,98.67,42c-7.37.08-27.88-.49-40.73-7.36C44,27.2,45.71,36.72,46.56,39.84Z"/></svg>